<svg width="227" height="120" viewBox="0 0 227 120" fill="none" xmlns="http://www.w3.org/2000/svg">
<path d="M102.16 70.89L90.3247 40.785L91.3597 40.785C92.0197 42.555 93.0097 44.01 94.3297 45.15C95.6497 46.29 97.1347 47.235 98.7847 47.985C100.435 48.765 102.175 49.395 104.005 49.875C105.805 50.385 107.545 50.895 109.225 51.405L111.835 44.745C112.165 43.605 112.12 42.9 111.7 42.63C111.25 42.36 110.44 42.225 109.27 42.225L109.27 41.91L116.65 41.91L116.65 42.225C116.05 42.225 115.555 42.255 115.165 42.315C114.745 42.375 114.385 42.495 114.085 42.675C113.755 42.885 113.47 43.185 113.23 43.575C112.96 43.965 112.675 44.49 112.375 45.15L109.855 51.585C111.325 52.065 112.675 52.605 113.905 53.205C115.105 53.805 116.065 54.555 116.785 55.455C117.475 56.385 117.85 57.51 117.91 58.83C117.97 60.18 117.595 61.815 116.785 63.735L116.47 63.645C116.83 62.025 116.89 60.645 116.65 59.505C116.41 58.395 115.96 57.435 115.3 56.625C114.61 55.845 113.74 55.185 112.69 54.645C111.64 54.105 110.485 53.61 109.225 53.16L102.385 70.89L102.16 70.89ZM108.64 52.98C107.47 52.59 106.27 52.215 105.04 51.855C103.78 51.495 102.55 51.075 101.35 50.595C100.12 50.145 98.9498 49.62 97.8398 49.02C96.6997 48.42 95.6647 47.685 94.7347 46.815L102.79 68.01L108.64 52.98Z" fill="black"/>
<path d="M124.84 49.11L136.675 79.215L135.64 79.215C134.98 77.445 133.99 75.99 132.67 74.85C131.35 73.71 129.865 72.765 128.215 72.015C126.565 71.235 124.825 70.605 122.995 70.125C121.195 69.615 119.455 69.105 117.775 68.595L115.165 75.255C114.835 76.395 114.88 77.1 115.3 77.37C115.75 77.64 116.56 77.775 117.73 77.775V78.09L110.35 78.09L110.35 77.775C110.95 77.775 111.445 77.745 111.835 77.685C112.255 77.625 112.615 77.505 112.915 77.325C113.245 77.115 113.53 76.815 113.77 76.425C114.04 76.035 114.325 75.51 114.625 74.85L117.145 68.415C115.675 67.935 114.325 67.395 113.095 66.795C111.895 66.195 110.935 65.445 110.215 64.545C109.525 63.615 109.15 62.49 109.09 61.17C109.03 59.82 109.405 58.185 110.215 56.265L110.53 56.355C110.17 57.975 110.11 59.355 110.35 60.495C110.59 61.605 111.04 62.565 111.7 63.375C112.39 64.155 113.26 64.815 114.31 65.355C115.36 65.895 116.515 66.39 117.775 66.84L124.615 49.11H124.84ZM118.36 67.02C119.53 67.41 120.73 67.785 121.96 68.145C123.22 68.505 124.45 68.925 125.65 69.405C126.88 69.855 128.05 70.38 129.16 70.98C130.3 71.58 131.335 72.315 132.265 73.185L124.21 51.99L118.36 67.02Z" fill="black"/>
<path d="M114.5 16C98.2073 16 84.9997 35.4756 84.9998 59.5C84.9998 83.5244 98.2074 103 114.5 103C130.792 103 144 83.5244 144 59.5C144 35.4756 130.792 16 114.5 16Z" stroke="black" stroke-miterlimit="10"/>
</svg>
