<svg width="94" height="103" viewBox="0 0 94 103" fill="none" xmlns="http://www.w3.org/2000/svg">
<path d="M29.225 101C44.261 101 56.45 88.8108 56.45 73.7748C56.45 58.7389 44.261 46.5498 29.225 46.5498C14.189 46.5498 2 58.7389 2 73.7748C2 88.8108 14.189 101 29.225 101Z" stroke="black" stroke-width="4" stroke-linecap="round" stroke-linejoin="round"/>
<path d="M63.8749 101C78.9109 101 91.0999 88.8108 91.0999 73.7748C91.0999 58.7389 78.9109 46.5498 63.8749 46.5498C48.839 46.5498 36.6499 58.7389 36.6499 73.7748C36.6499 88.8108 48.839 101 63.8749 101Z" stroke="black" stroke-width="4" stroke-linecap="round" stroke-linejoin="round"/>
<path d="M46.55 36.65C46.55 36.65 66.35 27.4777 66.35 12.5881C66.35 6.7421 62.1821 2 56.45 2C51.7623 2 48.6339 4.0394 46.55 8.11325C44.466 4.0394 41.3376 2 36.65 2C30.9179 2 26.75 6.7421 26.75 12.5881C26.75 27.4777 46.55 36.65 46.55 36.65Z" stroke="black" stroke-width="4" stroke-linejoin="round"/>
</svg>
