<svg width="71" height="75" viewBox="0 0 71 75" fill="none" xmlns="http://www.w3.org/2000/svg">
<path d="M0 71.0294V50.1775C0 49.4457 0.202722 48.7819 0.608167 48.1861C1.01361 47.5903 1.5575 47.1391 2.23983 46.8325L14.8333 41.1959V31.2205C14.8333 30.506 15.0163 29.862 15.3822 29.2884C15.7481 28.7149 16.2351 28.2575 16.8433 27.9163L33.375 19.6134V11.1213H27.8125C27.2859 11.1213 26.8459 10.9433 26.4923 10.5873C26.1388 10.2313 25.9608 9.79124 25.9583 9.26713C25.9559 8.74301 26.1339 8.30296 26.4923 7.94696C26.8508 7.59096 27.2909 7.41419 27.8125 7.41667H33.375V1.85417C33.375 1.33006 33.553 0.89 33.909 0.534C34.265 0.178 34.7063 0 35.2329 0C35.7595 0 36.1995 0.178 36.553 0.534C36.9066 0.89 37.0833 1.33006 37.0833 1.85417V7.41667H42.6458C43.1724 7.41667 43.6125 7.59467 43.966 7.95067C44.322 8.30667 44.5 8.74796 44.5 9.27454C44.5 9.80113 44.322 10.2412 43.966 10.5947C43.61 10.9482 43.1699 11.125 42.6458 11.125H37.0833V19.6097L53.6151 27.9126C54.2233 28.2538 54.7103 28.7112 55.0762 29.2847C55.4421 29.8583 55.625 30.501 55.625 31.213V41.1996L68.2185 46.8325C68.9033 47.1391 69.4472 47.5903 69.8502 48.1861C70.2531 48.7819 70.4559 49.4457 70.4583 50.1775V71.0294C70.4583 72.0233 70.0887 72.8898 69.3495 73.629C68.6104 74.3682 67.7438 74.7377 66.75 74.7377H43.788C42.9376 74.7377 42.2256 74.451 41.652 73.8774C41.0784 73.3039 40.7917 72.5919 40.7917 71.7414V61.473C40.7917 59.9477 40.2465 58.6386 39.1563 57.5459C38.0636 56.4557 36.7545 55.9105 35.2292 55.9105C33.7038 55.9105 32.3948 56.4569 31.302 57.5496C30.2118 58.6374 29.6667 59.9452 29.6667 61.473V71.7451C29.6667 72.5906 29.3799 73.3014 28.8063 73.8774C28.2328 74.4534 27.5208 74.7402 26.6703 74.7377H3.70833C2.7145 74.7377 1.84799 74.3682 1.10879 73.629C0.369597 72.8898 0 72.0233 0 71.0294ZM3.70833 71.0294H25.9583V61.4323C25.9583 58.8364 26.8595 56.6349 28.6617 54.8277C30.4615 53.0205 32.6482 52.1169 35.2218 52.1169C37.7953 52.1169 39.9845 53.0193 41.7892 54.824C43.5964 56.6337 44.5 58.8364 44.5 61.4323V71.0294H66.75V50.1626L51.9167 43.5136V31.1352L35.2292 22.606L18.5417 31.1352V43.5136L3.70833 50.1626V71.0294ZM35.2477 43.6471C36.3998 43.6471 37.3738 43.2429 38.1699 42.4345C38.9684 41.626 39.3677 40.6458 39.3677 39.4938C39.3677 38.3392 38.9635 37.3627 38.155 36.5642C37.3466 35.7706 36.3664 35.3738 35.2143 35.3738C34.0598 35.3738 33.0833 35.7768 32.2848 36.5827C31.4912 37.3911 31.0944 38.3714 31.0944 39.5234C31.0944 40.6779 31.4974 41.6545 32.3033 42.453C33.1117 43.2491 34.0919 43.6471 35.244 43.6471" fill="black"/>
</svg>
