<svg width="71" height="71" viewBox="0 0 71 71" fill="none" xmlns="http://www.w3.org/2000/svg">
<path d="M22.0996 2C18.7494 2 19.3692 10.0972 14.7293 13.5981C11.272 16.2011 4.99053 13.4373 2.42769 17.8159C1.64712 19.1492 2.03238 20.9114 2.80291 24.4324L9.46963 54.8815C10.7762 60.8514 11.5735 68.1413 18.7494 69.0022H52.2506C59.4232 68.1413 60.2238 60.8514 61.5304 54.8815L68.1971 24.4324C68.9676 20.9114 69.3529 19.1492 68.5723 17.8159C66.0095 13.4373 59.728 16.2011 56.274 13.5947C51.6308 10.1006 52.2506 2 48.9004 2" stroke="black" stroke-width="4" stroke-linecap="round"/>
<path d="M35.5304 32.1504H35.5002M35.5304 43.8758H35.5002M35.5304 55.6012H35.5002" stroke="black" stroke-width="4" stroke-linecap="round"/>
<path d="M21.1753 2.39876C24.2976 0.643302 28.6025 5.15255 30.8236 6.83766C33.8621 9.13919 35.3797 10.2883 35.4903 11.8092C35.5019 11.9698 35.5019 12.131 35.4903 12.2916C35.3797 13.8092 33.8621 14.9617 30.8269 17.2632C28.6025 18.9483 24.2942 23.4576 21.1786 21.7021C17.9424 19.8863 17.9391 4.21452 21.1753 2.39876Z" stroke="black" stroke-width="4"/>
<path d="M49.8249 2.39876C46.7026 0.643302 42.3977 5.15255 40.1766 6.83766C37.1381 9.13919 35.6205 10.2883 35.5099 11.8092C35.4983 11.9698 35.4983 12.131 35.5099 12.2916C35.6205 13.8092 37.1381 14.9617 40.1733 17.2632C42.3977 18.9483 46.706 23.4576 49.8216 21.7021C53.0578 19.8863 53.0611 4.21452 49.8249 2.39876Z" stroke="black" stroke-width="4"/>
</svg>
