<svg width="91" height="82" viewBox="0 0 91 82" fill="none" xmlns="http://www.w3.org/2000/svg">
<path fill-rule="evenodd" clip-rule="evenodd" d="M45.9297 1.42104L45.5 1.56259L45.0754 1.4261C43.2782 0.836588 41.3612 0.710418 39.5023 1.05928C37.6433 1.40815 35.9026 2.22076 34.4414 3.42175C32.9803 4.62275 31.846 6.17325 31.1438 7.92948C30.4417 9.68571 30.1943 11.5908 30.4247 13.4681L31.001 18.1949C31.4399 21.7311 33.1559 24.9849 35.8261 27.3443C38.4963 29.7036 41.9368 31.0058 45.5 31.0058C49.0633 31.0058 52.5037 29.7036 55.1739 27.3443C57.8442 24.9849 59.5601 21.7311 59.999 18.1949L60.5803 13.4681C60.8089 11.5911 60.5604 9.68669 59.8578 7.93117C59.1551 6.17564 58.0211 4.62569 56.5606 3.4247C55.1 2.22371 53.3602 1.41048 51.502 1.06026C49.6438 0.710029 47.7272 0.834117 45.9297 1.42104ZM40.8237 5.97092C41.7236 5.85465 42.6386 5.94565 43.5031 6.22369L45.5 6.8809L47.502 6.22369C48.4908 5.89897 49.5458 5.82937 50.5687 6.02134C51.5917 6.21332 52.5496 6.66065 53.3535 7.3218C54.1574 7.98296 54.7811 8.8365 55.167 9.8032C55.5528 10.7699 55.6881 11.8184 55.5603 12.8514L54.9789 17.5782C54.6865 19.8857 53.5623 22.0073 51.8172 23.5452C50.0721 25.0831 47.826 25.9315 45.5 25.9315C43.174 25.9315 40.9279 25.0831 39.1828 23.5452C37.4377 22.0073 36.3136 19.8857 36.0211 17.5782L35.4397 12.8514C35.3394 12.0455 35.3992 11.2277 35.6157 10.445C35.8322 9.66225 36.2012 8.92999 36.7015 8.29024C37.2017 7.65048 37.8234 7.11583 38.5308 6.71695C39.2382 6.31807 40.0174 6.06788 40.8237 5.97092Z" fill="black"/>
<path fill-rule="evenodd" clip-rule="evenodd" d="M54.9537 25.9644H34.9039C32.2412 25.966 29.6258 26.6687 27.3208 28.0017C19.2557 32.6594 13.2903 37.8985 9.42456 43.719C8.18598 45.5895 6.92718 47.2983 5.74927 48.8907C0.618008 55.8419 -2.93596 60.6547 3.37827 67.6211C11.1384 76.19 27.5836 81.574 43.7206 81.574C59.8575 81.574 75.9388 78.3992 86.3732 67.6211C94.0979 59.6436 90.8877 56.0846 85.8929 50.5489C84.1387 48.6076 82.1671 46.4237 80.3724 43.719C76.3584 37.6761 70.366 32.4083 62.3953 27.9157C60.1237 26.6365 57.5607 25.9644 54.9537 25.9644ZM29.8485 32.3746C31.3855 31.4871 33.1291 31.0199 34.9039 31.0198H54.9537C56.6915 31.0211 58.3995 31.4704 59.9131 32.3241C67.2232 36.4392 72.6174 41.1812 76.1612 46.5147C77.0004 47.7785 77.9104 49.0019 78.9165 50.2355C79.0327 50.377 79.4523 50.8573 80.0286 51.5094C81.7525 53.481 84.8869 57.0603 85.4329 57.945C86.4136 59.5425 86.1912 60.5435 82.7383 64.1075C74.4677 72.6563 61.2225 76.5186 43.7206 76.5186C28.5745 76.5186 13.661 71.4379 7.12434 64.2289C5.20328 62.1056 4.82412 60.862 5.18306 59.4616C5.46616 58.3494 6.22448 56.9339 7.67538 54.8511C7.85738 54.5831 8.45897 53.7591 9.20718 52.7379C10.4963 50.9685 12.2202 48.6026 12.9482 47.5308L13.6408 46.5197C17.038 41.3986 22.417 36.6717 29.8485 32.3746Z" fill="black"/>
<path d="M42.9718 43.6586C42.9718 42.9882 43.2381 42.3453 43.7121 41.8713C44.1862 41.3972 44.8291 41.1309 45.4995 41.1309C46.1699 41.1309 46.8128 41.3972 47.2868 41.8713C47.7609 42.3453 48.0272 42.9882 48.0272 43.6586V63.8803C48.0272 64.5507 47.7609 65.1936 47.2868 65.6677C46.8128 66.1417 46.1699 66.408 45.4995 66.408C44.8291 66.408 44.1862 66.1417 43.7121 65.6677C43.2381 65.1936 42.9718 64.5507 42.9718 63.8803V43.6586ZM30.7579 42.2583C30.937 41.9714 31.1718 41.7234 31.4485 41.5289C31.7252 41.3345 32.038 41.1975 32.3686 41.1261C32.6992 41.0548 33.0407 41.0505 33.373 41.1135C33.7052 41.1765 34.0215 41.3055 34.303 41.493C34.5844 41.6804 34.8255 41.9224 35.0117 42.2047C35.198 42.4869 35.3257 42.8037 35.3874 43.1362C35.449 43.4687 35.4433 43.8102 35.3706 44.1405C35.2978 44.4708 35.1596 44.7831 34.964 45.059L24.8531 60.2253C24.4728 60.7617 23.8984 61.1287 23.2519 61.2486C22.6053 61.3684 21.9375 61.2316 21.3902 60.8672C20.8429 60.5027 20.4591 59.9393 20.3204 59.2966C20.1816 58.6538 20.2988 57.9823 20.647 57.4245L30.7579 42.2583ZM60.2411 42.2583C60.062 41.9714 59.8272 41.7234 59.5505 41.5289C59.2738 41.3345 58.9609 41.1975 58.6304 41.1261C58.2998 41.0548 57.9583 41.0505 57.626 41.1135C57.2937 41.1765 56.9775 41.3055 56.696 41.493C56.4145 41.6804 56.1735 41.9224 55.9872 42.2047C55.801 42.4869 55.6732 42.8037 55.6116 43.1362C55.55 43.4687 55.5557 43.8102 55.6284 44.1405C55.7011 44.4708 55.8394 44.7831 56.035 45.059L66.1458 60.2253C66.5262 60.7617 67.1006 61.1287 67.7471 61.2486C68.3937 61.3684 69.0615 61.2316 69.6088 60.8672C70.1561 60.5027 70.5399 59.9393 70.6786 59.2966C70.8174 58.6538 70.7002 57.9823 70.352 57.4245L60.2411 42.2583Z" fill="black"/>
</svg>
