<svg width="40" height="44" viewBox="0 0 40 44" fill="none" xmlns="http://www.w3.org/2000/svg">
<path d="M6.14062 30.4473H3.65625C3.21699 30.4473 2.79571 30.2728 2.4851 29.9622C2.1745 29.6516 2 29.2303 2 28.791V15.541C2 15.1018 2.1745 14.6805 2.4851 14.3699C2.79571 14.0593 3.21699 13.8848 3.65625 13.8848H15.25L26.1581 2.9767C28.2449 0.889829 31.8125 2.36886 31.8125 5.31864V5.60352M31.8125 19.6816V39.0134C31.8125 41.9632 28.2449 43.4422 26.1581 41.3553L18.5625 33.7598M2 42.041L38.4375 5.60352" stroke="black" stroke-width="3" stroke-linecap="round" stroke-linejoin="round"/>
<path d="M6.14062 30.4473H3.65625C3.21699 30.4473 2.79571 30.2728 2.4851 29.9622C2.1745 29.6516 2 29.2303 2 28.791V15.541C2 15.1018 2.1745 14.6805 2.4851 14.3699C2.79571 14.0593 3.21699 13.8848 3.65625 13.8848H15.25L26.1581 2.9767C28.2449 0.889829 31.8125 2.36886 31.8125 5.31864V5.60352M31.8125 19.6816V39.0134C31.8125 41.9632 28.2449 43.4422 26.1581 41.3553L18.5625 33.7598M2 42.041L38.4375 5.60352" stroke="white" stroke-opacity="0.2" stroke-width="3" stroke-linecap="round" stroke-linejoin="round"/>
</svg>
