<svg width="35" height="34" viewBox="0 0 35 34" fill="none" xmlns="http://www.w3.org/2000/svg">
<path d="M19.75 1.03711V33.0078L17.9355 33.708L8.40137 24.2539L8.32812 24.1816H1.35352L0.25 23.085V10.8652L1.35352 9.76855H8.32715L8.40039 9.69727L17.9326 0.293945L19.75 1.03711ZM17.3242 3.69922L9.48145 11.4199L8.7002 11.7539H2.25V22.1963H8.69434L9.47852 22.5752L17.3242 30.3496L17.75 30.7725V3.28027L17.3242 3.69922ZM31.0479 6.3623C33.4489 9.38173 34.7559 13.1207 34.75 16.9746V16.9756C34.7563 20.8375 33.444 24.5838 31.0342 27.6064L29.6064 26.1924C31.5157 23.7184 32.6093 20.7225 32.7373 17.6133L32.75 16.9746C32.7499 13.5169 31.5817 10.3286 29.6211 7.77734L31.0479 6.3623ZM27.4756 9.91211C28.906 11.9045 29.75 14.3411 29.75 16.9756C29.7541 19.5186 28.9515 21.9944 27.4639 24.0576L26.0273 22.6299C27.0767 21.0646 27.6705 19.2429 27.7422 17.3652L27.75 16.9746C27.7502 14.9681 27.153 13.009 26.0391 11.3398L27.4756 9.91211ZM23.8584 13.5088C24.4262 14.5372 24.75 15.7198 24.75 16.9756C24.7499 18.2414 24.4231 19.4288 23.8467 20.4619L22.3486 18.9746C22.6115 18.3453 22.7499 17.6709 22.752 16.9883C22.754 16.3051 22.6198 15.6294 22.3604 14.998L23.8584 13.5088Z" fill="black" stroke="black" stroke-width="0.5"/>
</svg>
